<?xml version="1.0" encoding="utf-8"?>
<!-- Svg Vector Icons : http://www.onlinewebfonts.com/icon -->
<!DOCTYPE svg PUBLIC "-//W3C//DTD SVG 1.1//EN" "http://www.w3.org/Graphics/SVG/1.1/DTD/svg11.dtd">
<svg version="1.1" xmlns="http://www.w3.org/2000/svg" xmlns:xlink="http://www.w3.org/1999/xlink" x="0px" y="0px" viewBox="0 0 256 256" enable-background="new 0 0 256 256" xml:space="preserve">
<metadata> Svg Vector Icons : http://www.onlinewebfonts.com/icon </metadata>
<g><g><g><path fill="#000000" d="M21.1,47.2c-4.1,1-7.3,3.6-9.5,7.5L10,57.7v55.7V169l1.7,3c3.1,5.7,7.4,7.9,15.5,7.9h4.8V134c0-51.3-0.1-49.3,3.3-56.2c3.8-7.6,11.6-13.7,20-15.5c2.8-0.6,14.2-0.7,78.7-0.7h75.5l-0.3-2.2c-0.4-3.2-3-7.4-5.5-9.4c-4.5-3.5,3-3.2-94-3.1C61.7,46.9,21.9,47,21.1,47.2z"/><path fill="#000000" d="M58,76.8c-2.2,0.6-6.1,2.9-7.4,4.3c-0.6,0.8-1.7,2.4-2.4,3.7l-1.2,2.4L46.8,142c-0.1,61-0.3,57.2,3,61.7c1.1,1.5,2.7,2.8,4.7,3.9l3,1.7h88.9h88.9l2.4-1.2c3.5-1.8,4.9-3.2,6.7-6.5l1.6-2.9v-55.7V87.2l-1.7-3c-1.1-1.9-2.4-3.6-3.8-4.7c-4.5-3.5,3-3.2-94-3.1C98.6,76.5,58.8,76.6,58,76.8z M126.9,103.5c7.3,3.7,9.2,13.1,3.8,19.1c-5,5.7-13.5,5.7-18.5,0c-7.3-8.2-1-21,9.9-20.3C123.8,102.5,125.8,103,126.9,103.5z M164.6,121c1,1.1,29.4,49.6,32.2,55.2c1.6,3.1,1,5.5-1.7,6.7c-2.4,1-95.1,1-97.4,0c-2.6-1.1-3.2-3.6-1.7-6.7c3-5.8,17.4-30.1,18.3-30.9c1.3-1.2,2.9-1.3,4.7-0.4c1.2,0.6,3.2,3.7,9.8,15.4c1.6,2.9,3.1,5.1,3.3,5.1c0.2,0,6-9.8,12.8-21.8c6.9-12,13-22.2,13.7-22.8C160.5,119.3,163.1,119.4,164.6,121z"/></g></g></g>
</svg>